M48
;Layer_Color=9474304
;FILE_FORMAT=4:3
METRIC,TZ
;TYPE=PLATED
T1F00S00C0.300
T2F00S00C0.400
T3F00S00C0.500
T4F00S00C0.800
T5F00S00C0.965
T6F00S00C3.100
T7F00S00C3.300
;TYPE=NON_PLATED
T8F00S00C1.500
T9F00S00C3.000
%
T01
X8600Y5500
X12136Y4750
X118400Y4667
X109100Y11800
X104300Y10880
X67900Y13300
X67100Y14100
X38100Y12800
X37400Y11938
X4500Y14500
X3500
X4000Y14000
X3000
X5000Y15000
T02
X51200Y3700
X113700Y5100
X129500Y16000
Y17000
Y18000
Y19000
Y22000
Y23000
Y24000
Y25000
X128500
Y24000
X127500
Y25000
Y23000
Y22000
X128500
Y23000
Y19000
X127500
Y18000
Y17000
X128500
Y16000
X127500
X128500Y18000
X114000Y13000
X106900Y11400
X93500Y12000
X92500
Y13000
Y14000
X93500
Y13000
X91500
Y14000
X90500
Y13000
Y12000
X91500
X88500
X87500
Y13000
Y14000
X88500
Y13000
X86500
Y14000
X85500
Y13000
Y12000
X86500
X83500
X82500
Y13000
Y14000
X83500
Y13000
X81500
Y14000
X80500
Y13000
Y12000
X81500
T03
X2000Y1195
X3200Y2700
X4200
X5500
X6500
X8000
X9177
X10352
X13100
X14100
X15400
X16400
X116800Y14200
X12100Y18000
Y19000
Y20000
Y21000
Y22000
X13600Y22800
X8500Y23000
X7500
X6500
Y24000
X7500
X8500
Y25000
X7500
X6500Y25000
X5500
Y24000
Y23000
Y22000
X6500
X7500
X8500
X7500Y20400
X6500
X5500
T04
X2605Y9455
X5145
X7685
X10225
X12765
X15305
X17845
X20385
X18500Y3840
Y1300
X43320Y1230
X45860
X48400
X47130Y3770
X44590
X43320Y9460
X40780
X49800
X52340
X49670Y3770
X69090Y7230
X71630
X111590Y3770
X114130
X116670
X115400Y1230
X112860
X110320
X72900Y9770
X70360
X53610Y12000
X51070
X44590
X42050
X21655Y11995
X19115
X16575
X14035
X11495
X8955
X6415
X3875
T05
X122000Y10500
X127000
X125750Y19035
X123250Y23365
T06
X82000Y8000
X87000
X92000
T07
X33000Y2500
X38000
X122000
X127000
X132500Y17500
Y23500
X2500
Y17500
T08
X67690Y9030
X48400Y11260
X39380
T09
X25000Y5000
X62000Y5000
X98000
X135000
M30
