G04*
G04 #@! TF.GenerationSoftware,Altium Limited,Altium Designer,18.1.7 (191)*
G04*
G04 Layer_Color=65535*
%FSLAX43Y43*%
%MOMM*%
G71*
G01*
G75*
%ADD10C,0.200*%
%ADD11C,0.127*%
D10*
X34000Y6500D02*
G03*
X34000Y6500I-1000J0D01*
G01*
X39000Y6500D02*
G03*
X39000Y6500I-1000J0D01*
G01*
X122000Y6000D02*
G03*
X122000Y6000I-1000J0D01*
G01*
X129000Y6000D02*
G03*
X129000Y6000I-1000J0D01*
G01*
X33000Y6000D02*
Y7000D01*
X32500Y6500D02*
X33500D01*
X37500Y6500D02*
X38500D01*
X120500Y6000D02*
X121500D01*
X127500Y6000D02*
X128500D01*
X128000Y5500D02*
Y6500D01*
X55000Y13600D02*
X54800Y13400D01*
X54400D01*
X54200Y13600D01*
Y13800D01*
X54400Y14000D01*
X54600D01*
X54400D01*
X54200Y14200D01*
Y14400D01*
X54400Y14600D01*
X54800D01*
X55000Y14400D01*
X53800Y14600D02*
Y14400D01*
X53600D01*
Y14600D01*
X53800D01*
X52801Y13600D02*
X52601Y13400D01*
X52201D01*
X52001Y13600D01*
Y13800D01*
X52201Y14000D01*
X52401D01*
X52201D01*
X52001Y14200D01*
Y14400D01*
X52201Y14600D01*
X52601D01*
X52801Y14400D01*
X51601Y13400D02*
Y14200D01*
X51201Y14600D01*
X50801Y14200D01*
Y13400D01*
X48602Y14600D02*
X49202Y14000D01*
X48602Y13400D01*
X48002D02*
Y14400D01*
X47802Y14600D01*
X47402D01*
X47203Y14400D01*
Y13400D01*
X46803Y14600D02*
Y13800D01*
X46403Y13400D01*
X46003Y13800D01*
Y14600D01*
Y14000D01*
X46803D01*
X45603Y14600D02*
Y13400D01*
X45003D01*
X44803Y13600D01*
Y14000D01*
X45003Y14200D01*
X45603D01*
X45203D02*
X44803Y14600D01*
X44403Y13400D02*
X43604D01*
X44004D01*
Y14600D01*
X43204D02*
X42604Y14000D01*
X43204Y13400D01*
X40205D02*
X41005D01*
Y14000D01*
X40605Y13800D01*
X40405D01*
X40205Y14000D01*
Y14400D01*
X40405Y14600D01*
X40805D01*
X41005Y14400D01*
X39805Y13400D02*
Y14200D01*
X39405Y14600D01*
X39005Y14200D01*
Y13400D01*
D11*
X6900Y17824D02*
Y19576D01*
X7700Y17824D02*
Y19576D01*
X6900Y15724D02*
Y17476D01*
X7700Y15724D02*
Y17476D01*
X11092Y23694D02*
X11397D01*
X11092Y24506D02*
X11397D01*
X7224Y21700D02*
X8976D01*
X7224Y22500D02*
X8976D01*
X5124Y21700D02*
X6876D01*
X5124Y22500D02*
X6876D01*
X2824Y3100D02*
X4576D01*
X2824Y2300D02*
X4576D01*
X5124Y3100D02*
X6876D01*
X5124Y2300D02*
X6876D01*
X15024Y3100D02*
X16776D01*
X15024Y2300D02*
X16776D01*
X12724Y3100D02*
X14476D01*
X12724Y2300D02*
X14476D01*
X11092Y23106D02*
X11397D01*
X11092Y22294D02*
X11397D01*
M02*
