G04*
G04 #@! TF.GenerationSoftware,Altium Limited,Altium Designer,18.1.7 (191)*
G04*
G04 Layer_Color=32896*
%FSLAX43Y43*%
%MOMM*%
G71*
G01*
G75*
%ADD10C,0.200*%
%ADD11C,0.127*%
D10*
X11500Y22000D02*
G03*
X11500Y22000I-1000J0D01*
G01*
Y18500D02*
G03*
X11500Y18500I-1000J0D01*
G01*
X126500Y16500D02*
G03*
X126500Y16500I-1000J0D01*
G01*
Y24500D02*
G03*
X126500Y24500I-1000J0D01*
G01*
X107605Y8357D02*
G03*
X107605Y8992I0J317D01*
G01*
X10000Y22000D02*
X11000D01*
X10000Y18500D02*
X11000D01*
X10500Y18000D02*
Y19000D01*
X125500Y16000D02*
Y17000D01*
X125000Y16500D02*
X126000D01*
X125000Y24500D02*
X126000D01*
X107605Y8992D02*
Y9765D01*
Y7585D02*
Y8357D01*
Y7585D02*
X117765D01*
Y9765D01*
X107605D02*
X117765D01*
D11*
X10248Y4506D02*
X10552D01*
X10248Y3694D02*
X10552D01*
X10248Y5094D02*
X10552D01*
X10248Y5906D02*
X10552D01*
X116078Y12624D02*
Y13576D01*
X115722Y12624D02*
Y13576D01*
X118024Y6753D02*
X118976D01*
X118024Y6397D02*
X118976D01*
X106374Y5797D02*
X107326D01*
X106374Y6153D02*
X107326D01*
X106278Y10904D02*
Y11856D01*
X105922Y10904D02*
Y11856D01*
M02*
