G04*
G04 #@! TF.GenerationSoftware,Altium Limited,Altium Designer,18.1.7 (191)*
G04*
G04 Layer_Physical_Order=2*
G04 Layer_Color=16711680*
%FSLAX43Y43*%
%MOMM*%
G71*
G01*
G75*
G04:AMPARAMS|DCode=36|XSize=1mm|YSize=0.9mm|CornerRadius=0.113mm|HoleSize=0mm|Usage=FLASHONLY|Rotation=270.000|XOffset=0mm|YOffset=0mm|HoleType=Round|Shape=RoundedRectangle|*
%AMROUNDEDRECTD36*
21,1,1.000,0.675,0,0,270.0*
21,1,0.775,0.900,0,0,270.0*
1,1,0.225,-0.338,-0.388*
1,1,0.225,-0.338,0.388*
1,1,0.225,0.338,0.388*
1,1,0.225,0.338,-0.388*
%
%ADD36ROUNDEDRECTD36*%
%ADD40C,0.300*%
%ADD41C,0.500*%
%ADD44C,1.300*%
G04:AMPARAMS|DCode=45|XSize=4.5mm|YSize=4.5mm|CornerRadius=1.125mm|HoleSize=0mm|Usage=FLASHONLY|Rotation=0.000|XOffset=0mm|YOffset=0mm|HoleType=Round|Shape=RoundedRectangle|*
%AMROUNDEDRECTD45*
21,1,4.500,2.250,0,0,0.0*
21,1,2.250,4.500,0,0,0.0*
1,1,2.250,1.125,-1.125*
1,1,2.250,-1.125,-1.125*
1,1,2.250,-1.125,1.125*
1,1,2.250,1.125,1.125*
%
%ADD45ROUNDEDRECTD45*%
G04:AMPARAMS|DCode=46|XSize=2mm|YSize=2mm|CornerRadius=0.25mm|HoleSize=0mm|Usage=FLASHONLY|Rotation=180.000|XOffset=0mm|YOffset=0mm|HoleType=Round|Shape=RoundedRectangle|*
%AMROUNDEDRECTD46*
21,1,2.000,1.500,0,0,180.0*
21,1,1.500,2.000,0,0,180.0*
1,1,0.500,-0.750,0.750*
1,1,0.500,0.750,0.750*
1,1,0.500,0.750,-0.750*
1,1,0.500,-0.750,-0.750*
%
%ADD46ROUNDEDRECTD46*%
%ADD47C,2.000*%
G04:AMPARAMS|DCode=48|XSize=2mm|YSize=2mm|CornerRadius=0.25mm|HoleSize=0mm|Usage=FLASHONLY|Rotation=120.000|XOffset=0mm|YOffset=0mm|HoleType=Round|Shape=RoundedRectangle|*
%AMROUNDEDRECTD48*
21,1,2.000,1.500,0,0,120.0*
21,1,1.500,2.000,0,0,120.0*
1,1,0.500,0.275,1.025*
1,1,0.500,1.025,-0.275*
1,1,0.500,-0.275,-1.025*
1,1,0.500,-1.025,0.275*
%
%ADD48ROUNDEDRECTD48*%
%ADD49C,0.800*%
%ADD50C,0.900*%
%ADD51C,0.600*%
%ADD52R,3.000X4.000*%
%ADD53R,0.600X1.550*%
%ADD54O,0.600X1.550*%
%ADD55R,4.000X3.000*%
G04:AMPARAMS|DCode=56|XSize=1mm|YSize=0.9mm|CornerRadius=0.113mm|HoleSize=0mm|Usage=FLASHONLY|Rotation=180.000|XOffset=0mm|YOffset=0mm|HoleType=Round|Shape=RoundedRectangle|*
%AMROUNDEDRECTD56*
21,1,1.000,0.675,0,0,180.0*
21,1,0.775,0.900,0,0,180.0*
1,1,0.225,-0.388,0.338*
1,1,0.225,0.388,0.338*
1,1,0.225,0.388,-0.338*
1,1,0.225,-0.388,-0.338*
%
%ADD56ROUNDEDRECTD56*%
G36*
X134796Y20000D02*
X126589D01*
X126422Y20289D01*
X126304Y20423D01*
X126143Y20503D01*
X125965Y20514D01*
X125795Y20457D01*
X125004Y20000D01*
X124400D01*
Y19623D01*
X124361Y19589D01*
X124282Y19428D01*
X124271Y19250D01*
X124328Y19080D01*
X124400Y18956D01*
Y204D01*
X119500D01*
Y14796D01*
X119578Y14812D01*
X119644Y14856D01*
X119688Y14922D01*
X119704Y15000D01*
Y25796D01*
X134796D01*
Y20000D01*
D02*
G37*
G36*
X126412Y19898D02*
X126430Y19878D01*
X126444Y19856D01*
X126456Y19848D01*
X126465Y19838D01*
X126488Y19826D01*
X126511Y19812D01*
X126524Y19809D01*
X126536Y19803D01*
X126562Y19801D01*
X126589Y19796D01*
X134796D01*
Y14296D01*
X129500Y9000D01*
Y204D01*
X124604D01*
Y18956D01*
X124601Y18969D01*
X124602Y18982D01*
X124600Y18989D01*
Y19596D01*
X124603Y19609D01*
X124603Y19616D01*
X124604Y19623D01*
Y19796D01*
X125004D01*
X125017Y19799D01*
X125031Y19798D01*
X125056Y19806D01*
X125082Y19812D01*
X125093Y19819D01*
X125106Y19823D01*
X125412Y20000D01*
X126353D01*
X126412Y19898D01*
D02*
G37*
G36*
X8100Y20900D02*
X8100Y15500D01*
X5049Y15500D01*
X5000Y15510D01*
X4951Y15500D01*
X4500D01*
X4200Y15200D01*
X204D01*
Y20900D01*
X8100Y20900D01*
D02*
G37*
G36*
X14796Y15000D02*
X14812Y14922D01*
X14856Y14856D01*
X14922Y14812D01*
X15000Y14796D01*
Y14500D01*
X7200Y14500D01*
X4830Y12130D01*
X4709Y12170D01*
X4703Y12217D01*
X4617Y12424D01*
X4481Y12601D01*
X4304Y12737D01*
X4097Y12823D01*
X3875Y12852D01*
X3653Y12823D01*
X3446Y12737D01*
X3269Y12601D01*
X3133Y12424D01*
X3047Y12217D01*
X3018Y11995D01*
X3047Y11773D01*
X3133Y11566D01*
X3269Y11389D01*
X3446Y11253D01*
X3653Y11167D01*
X3700Y11161D01*
X3740Y11040D01*
X3600Y10900D01*
X3600Y8600D01*
X204Y8600D01*
Y14996D01*
X4200D01*
X4278Y15012D01*
X4344Y15056D01*
X4584Y15296D01*
X4951D01*
X4970Y15300D01*
X4991D01*
X4991Y15300D01*
X5009D01*
X5009Y15300D01*
X5030D01*
X5049Y15296D01*
X8075Y15296D01*
X8100Y15296D01*
X8200Y15300D01*
Y15326D01*
X8244Y15356D01*
X8288Y15422D01*
X8304Y15500D01*
X8304Y20900D01*
X8288Y20978D01*
X8244Y21044D01*
X8178Y21088D01*
X8100Y21104D01*
X204Y21104D01*
Y25796D01*
X14796D01*
Y15000D01*
D02*
G37*
G36*
X110283Y11913D02*
X110270Y11850D01*
Y10900D01*
X110293Y10787D01*
X110166Y10587D01*
X108740D01*
Y12143D01*
X110052D01*
X110283Y11913D01*
D02*
G37*
G36*
X105563Y11943D02*
X105500Y11880D01*
Y10880D01*
X105593Y10787D01*
X105510Y10587D01*
X103774D01*
X103692Y10787D01*
X105048Y12143D01*
X105480D01*
X105563Y11943D01*
D02*
G37*
G36*
X84436Y5625D02*
X79539Y5625D01*
Y14796D01*
X84436D01*
Y5625D01*
D02*
G37*
G36*
X89360Y5667D02*
X89270Y5578D01*
X84642Y5623D01*
X84640Y5625D01*
Y14796D01*
X89360D01*
Y5667D01*
D02*
G37*
G36*
X94416Y5575D02*
X89564D01*
Y14796D01*
X94416D01*
Y5575D01*
D02*
G37*
G36*
X117500Y9900D02*
X114488D01*
X114405Y10100D01*
X114721Y10416D01*
X114785Y10429D01*
X114950Y10540D01*
X115061Y10705D01*
X115100Y10900D01*
Y11850D01*
X115061Y12045D01*
X114962Y12194D01*
X114981Y12275D01*
X115036Y12394D01*
X115251D01*
X115474Y12172D01*
X115389Y12045D01*
X115350Y11850D01*
Y10900D01*
X115389Y10705D01*
X115500Y10540D01*
X115665Y10429D01*
X115860Y10390D01*
X116055Y10429D01*
X116220Y10540D01*
X116331Y10705D01*
X116370Y10900D01*
Y11850D01*
X116331Y12045D01*
X116227Y12200D01*
X116259Y12350D01*
X116300Y12400D01*
X116500Y12600D01*
Y13600D01*
X116300Y13800D01*
X115500D01*
X115486Y13786D01*
X115387Y13806D01*
X114713D01*
X114591Y13782D01*
X114487Y13713D01*
X114452Y13660D01*
X114234Y13565D01*
X114000Y13612D01*
X113766Y13565D01*
X113567Y13433D01*
X113435Y13234D01*
X113388Y13000D01*
X113435Y12766D01*
X113567Y12567D01*
X113766Y12435D01*
X114000Y12388D01*
X114193Y12427D01*
X114271Y12238D01*
X114230Y12210D01*
X114119Y12045D01*
X114080Y11850D01*
Y10900D01*
X114085Y10876D01*
X114017Y10818D01*
X113880Y10878D01*
X113830Y10921D01*
Y11850D01*
X113791Y12045D01*
X113680Y12210D01*
X113515Y12321D01*
X113351Y12354D01*
X111852Y13852D01*
X111737Y13930D01*
X111600Y13957D01*
X104586D01*
X104449Y13930D01*
X104333Y13852D01*
X101648Y11167D01*
X101570Y11051D01*
X101543Y10914D01*
Y4778D01*
X99527Y2762D01*
X51868D01*
X51594Y3036D01*
X51609Y3251D01*
X51633Y3267D01*
X51765Y3466D01*
X51812Y3700D01*
X51765Y3934D01*
X51633Y4133D01*
X51434Y4265D01*
X51200Y4312D01*
X50966Y4265D01*
X50767Y4133D01*
X50694Y4022D01*
X50644Y4015D01*
X50473Y4052D01*
X50412Y4199D01*
X50276Y4376D01*
X50099Y4512D01*
X49892Y4598D01*
X49670Y4627D01*
X49448Y4598D01*
X49241Y4512D01*
X49064Y4376D01*
X48928Y4199D01*
X48842Y3992D01*
X48813Y3770D01*
X48842Y3548D01*
X48928Y3341D01*
X48939Y3327D01*
X48840Y3127D01*
X48278D01*
X47928Y3476D01*
X47958Y3548D01*
X47987Y3770D01*
X47958Y3992D01*
X47872Y4199D01*
X47736Y4376D01*
X47559Y4512D01*
X47352Y4598D01*
X47130Y4627D01*
X46908Y4598D01*
X46701Y4512D01*
X46524Y4376D01*
X46388Y4199D01*
X46302Y3992D01*
X46273Y3770D01*
X46302Y3548D01*
X46388Y3341D01*
X46524Y3164D01*
X46701Y3028D01*
X46908Y2942D01*
X47130Y2913D01*
X47352Y2942D01*
X47424Y2972D01*
X47750Y2646D01*
X47733Y2482D01*
X46838Y1587D01*
X46632D01*
X46602Y1659D01*
X46466Y1836D01*
X46289Y1972D01*
X46082Y2058D01*
X45860Y2087D01*
X45638Y2058D01*
X45431Y1972D01*
X45254Y1836D01*
X45118Y1659D01*
X45032Y1452D01*
X45003Y1230D01*
X45032Y1008D01*
X45118Y801D01*
X45254Y624D01*
X45431Y488D01*
X45638Y402D01*
X45611Y204D01*
X35104D01*
X35036Y404D01*
X35070Y430D01*
X35282Y707D01*
X35416Y1029D01*
X35461Y1375D01*
Y3625D01*
X35416Y3971D01*
X35282Y4293D01*
X35070Y4570D01*
X34793Y4782D01*
X34471Y4916D01*
X34125Y4961D01*
X31875D01*
X31529Y4916D01*
X31207Y4782D01*
X30930Y4570D01*
X30718Y4293D01*
X30584Y3971D01*
X30539Y3625D01*
Y1375D01*
X30584Y1029D01*
X30718Y707D01*
X30930Y430D01*
X30964Y404D01*
X30896Y204D01*
X204D01*
Y8000D01*
X4000D01*
Y10000D01*
X5499Y11499D01*
X5749Y11466D01*
X5809Y11389D01*
X5986Y11253D01*
X6193Y11167D01*
X6415Y11138D01*
X6637Y11167D01*
X6844Y11253D01*
X7021Y11389D01*
X7157Y11566D01*
X7243Y11773D01*
X7272Y11995D01*
X7243Y12217D01*
X7157Y12424D01*
X7021Y12601D01*
X6944Y12661D01*
X6911Y12911D01*
X8100Y14100D01*
X20000D01*
Y14796D01*
X79335D01*
Y5625D01*
X79350Y5547D01*
X79394Y5481D01*
X79461Y5437D01*
X79539Y5421D01*
X84436Y5421D01*
X84514Y5437D01*
X84536Y5451D01*
X84545Y5444D01*
X84554Y5441D01*
X84562Y5435D01*
X84591Y5429D01*
X84621Y5420D01*
X84630Y5421D01*
X84640Y5419D01*
X89268Y5374D01*
X89268Y5374D01*
X89269Y5374D01*
X89308Y5381D01*
X89346Y5389D01*
X89346Y5389D01*
X89347Y5389D01*
X89380Y5411D01*
X89413Y5432D01*
X89420Y5431D01*
X89486Y5387D01*
X89564Y5371D01*
X94416D01*
X94494Y5387D01*
X94560Y5431D01*
X94604Y5497D01*
X94620Y5575D01*
Y14796D01*
X117500D01*
Y9900D01*
D02*
G37*
%LPC*%
G36*
X51070Y12857D02*
X50848Y12828D01*
X50641Y12742D01*
X50464Y12606D01*
X50328Y12429D01*
X50242Y12222D01*
X50213Y12000D01*
X50242Y11778D01*
X50328Y11571D01*
X50464Y11394D01*
X50641Y11258D01*
X50848Y11172D01*
X51070Y11143D01*
X51292Y11172D01*
X51499Y11258D01*
X51676Y11394D01*
X51812Y11571D01*
X51898Y11778D01*
X51927Y12000D01*
X51898Y12222D01*
X51812Y12429D01*
X51676Y12606D01*
X51499Y12742D01*
X51292Y12828D01*
X51070Y12857D01*
D02*
G37*
G36*
X53610D02*
X53388Y12828D01*
X53181Y12742D01*
X53004Y12606D01*
X52868Y12429D01*
X52782Y12222D01*
X52753Y12000D01*
X52758Y11957D01*
X51088Y10287D01*
X51010Y10171D01*
X50983Y10034D01*
Y9488D01*
X50252Y8757D01*
X44104D01*
X44005Y8957D01*
X44062Y9031D01*
X44148Y9238D01*
X44177Y9460D01*
X44148Y9682D01*
X44062Y9889D01*
X43926Y10066D01*
X43749Y10202D01*
X43542Y10288D01*
X43320Y10317D01*
X43098Y10288D01*
X43026Y10258D01*
X42826Y10458D01*
X42903Y10643D01*
X43590D01*
X43727Y10670D01*
X43842Y10748D01*
X44296Y11202D01*
X44368Y11172D01*
X44590Y11143D01*
X44812Y11172D01*
X45019Y11258D01*
X45196Y11394D01*
X45332Y11571D01*
X45418Y11778D01*
X45447Y12000D01*
X45418Y12222D01*
X45332Y12429D01*
X45196Y12606D01*
X45019Y12742D01*
X44812Y12828D01*
X44590Y12857D01*
X44368Y12828D01*
X44161Y12742D01*
X43984Y12606D01*
X43848Y12429D01*
X43762Y12222D01*
X43733Y12000D01*
X43762Y11778D01*
X43792Y11706D01*
X43442Y11357D01*
X42880D01*
X42781Y11557D01*
X42792Y11571D01*
X42878Y11778D01*
X42907Y12000D01*
X42878Y12222D01*
X42792Y12429D01*
X42656Y12606D01*
X42479Y12742D01*
X42272Y12828D01*
X42050Y12857D01*
X41828Y12828D01*
X41621Y12742D01*
X41444Y12606D01*
X41308Y12429D01*
X41222Y12222D01*
X41193Y12000D01*
X41222Y11778D01*
X41234Y11749D01*
X41064Y11636D01*
X40088Y12612D01*
X39972Y12690D01*
X39836Y12717D01*
X38924D01*
X38788Y12690D01*
X38672Y12612D01*
X37417Y11357D01*
X22489D01*
X22390Y11557D01*
X22397Y11566D01*
X22483Y11773D01*
X22512Y11995D01*
X22483Y12217D01*
X22397Y12424D01*
X22261Y12601D01*
X22084Y12737D01*
X21877Y12823D01*
X21655Y12852D01*
X21433Y12823D01*
X21226Y12737D01*
X21049Y12601D01*
X20913Y12424D01*
X20827Y12217D01*
X20798Y11995D01*
X20827Y11773D01*
X20913Y11566D01*
X20924Y11552D01*
X20825Y11352D01*
X19945D01*
X19846Y11552D01*
X19857Y11566D01*
X19943Y11773D01*
X19972Y11995D01*
X19943Y12217D01*
X19857Y12424D01*
X19721Y12601D01*
X19544Y12737D01*
X19337Y12823D01*
X19115Y12852D01*
X18893Y12823D01*
X18686Y12737D01*
X18509Y12601D01*
X18373Y12424D01*
X18287Y12217D01*
X18258Y11995D01*
X18287Y11773D01*
X18373Y11566D01*
X18384Y11552D01*
X18285Y11352D01*
X17405D01*
X17306Y11552D01*
X17317Y11566D01*
X17403Y11773D01*
X17432Y11995D01*
X17403Y12217D01*
X17317Y12424D01*
X17181Y12601D01*
X17004Y12737D01*
X16797Y12823D01*
X16575Y12852D01*
X16353Y12823D01*
X16146Y12737D01*
X15969Y12601D01*
X15833Y12424D01*
X15747Y12217D01*
X15718Y11995D01*
X15747Y11773D01*
X15833Y11566D01*
X15844Y11552D01*
X15745Y11352D01*
X15183D01*
X14833Y11701D01*
X14863Y11773D01*
X14892Y11995D01*
X14863Y12217D01*
X14777Y12424D01*
X14641Y12601D01*
X14464Y12737D01*
X14257Y12823D01*
X14035Y12852D01*
X13813Y12823D01*
X13606Y12737D01*
X13429Y12601D01*
X13293Y12424D01*
X13207Y12217D01*
X13178Y11995D01*
X13207Y11773D01*
X13293Y11566D01*
X13429Y11389D01*
X13606Y11253D01*
X13813Y11167D01*
X14035Y11138D01*
X14257Y11167D01*
X14329Y11197D01*
X14783Y10743D01*
X14898Y10665D01*
X15035Y10638D01*
X15722D01*
X15799Y10453D01*
X15599Y10253D01*
X15527Y10283D01*
X15305Y10312D01*
X15083Y10283D01*
X14876Y10197D01*
X14699Y10061D01*
X14563Y9884D01*
X14555Y9866D01*
X14319Y9819D01*
X12328Y11811D01*
X12352Y11995D01*
X12323Y12217D01*
X12237Y12424D01*
X12101Y12601D01*
X11924Y12737D01*
X11717Y12823D01*
X11495Y12852D01*
X11273Y12823D01*
X11066Y12737D01*
X10889Y12601D01*
X10753Y12424D01*
X10667Y12217D01*
X10638Y11995D01*
X10667Y11773D01*
X10753Y11566D01*
X10889Y11389D01*
X11066Y11253D01*
X11273Y11167D01*
X11495Y11138D01*
X11717Y11167D01*
X11891Y11239D01*
X12633Y10497D01*
X12561Y10285D01*
X12543Y10283D01*
X12336Y10197D01*
X12159Y10061D01*
X12023Y9884D01*
X11937Y9677D01*
X11934Y9659D01*
X11723Y9587D01*
X11603Y9707D01*
X11487Y9785D01*
X11351Y9812D01*
X10997D01*
X10967Y9884D01*
X10831Y10061D01*
X10654Y10197D01*
X10447Y10283D01*
X10225Y10312D01*
X10003Y10283D01*
X9796Y10197D01*
X9619Y10061D01*
X9512Y9922D01*
X9352Y9953D01*
X9312Y9974D01*
Y11223D01*
X9384Y11253D01*
X9561Y11389D01*
X9697Y11566D01*
X9783Y11773D01*
X9812Y11995D01*
X9783Y12217D01*
X9697Y12424D01*
X9561Y12601D01*
X9384Y12737D01*
X9177Y12823D01*
X8955Y12852D01*
X8733Y12823D01*
X8526Y12737D01*
X8349Y12601D01*
X8213Y12424D01*
X8127Y12217D01*
X8098Y11995D01*
X8127Y11773D01*
X8213Y11566D01*
X8349Y11389D01*
X8526Y11253D01*
X8598Y11223D01*
Y9974D01*
X8558Y9953D01*
X8398Y9922D01*
X8291Y10061D01*
X8114Y10197D01*
X7907Y10283D01*
X7685Y10312D01*
X7463Y10283D01*
X7256Y10197D01*
X7079Y10061D01*
X6943Y9884D01*
X6857Y9677D01*
X6828Y9455D01*
X6857Y9233D01*
X6943Y9026D01*
X7079Y8849D01*
X7256Y8713D01*
X7463Y8627D01*
X7685Y8598D01*
X7907Y8627D01*
X8114Y8713D01*
X8291Y8849D01*
X8427Y9026D01*
X8454Y9090D01*
X8675Y9100D01*
X8703Y9058D01*
X9558Y8203D01*
X9674Y8125D01*
X9811Y8098D01*
X11496D01*
X12946Y6648D01*
X13062Y6570D01*
X13199Y6543D01*
X23885D01*
X23957Y6343D01*
X23792Y6208D01*
X23580Y5949D01*
X23422Y5654D01*
X23325Y5333D01*
X23292Y5000D01*
X23325Y4667D01*
X23422Y4346D01*
X23580Y4051D01*
X23792Y3792D01*
X24051Y3580D01*
X24346Y3422D01*
X24667Y3325D01*
X25000Y3292D01*
X25333Y3325D01*
X25654Y3422D01*
X25949Y3580D01*
X26208Y3792D01*
X26420Y4051D01*
X26578Y4346D01*
X26675Y4667D01*
X26708Y5000D01*
X26675Y5333D01*
X26578Y5654D01*
X26420Y5949D01*
X26208Y6208D01*
X26043Y6343D01*
X26115Y6543D01*
X60885D01*
X60957Y6343D01*
X60792Y6208D01*
X60580Y5949D01*
X60422Y5654D01*
X60325Y5333D01*
X60292Y5000D01*
X60325Y4667D01*
X60422Y4346D01*
X60580Y4051D01*
X60792Y3792D01*
X61051Y3580D01*
X61346Y3422D01*
X61667Y3325D01*
X62000Y3292D01*
X62333Y3325D01*
X62654Y3422D01*
X62949Y3580D01*
X63208Y3792D01*
X63420Y4051D01*
X63578Y4346D01*
X63675Y4667D01*
X63708Y5000D01*
X63675Y5333D01*
X63578Y5654D01*
X63420Y5949D01*
X63208Y6208D01*
X63043Y6343D01*
X63115Y6543D01*
X67858D01*
X68423Y5978D01*
X68539Y5900D01*
X68676Y5873D01*
X70630D01*
X70767Y5900D01*
X70882Y5978D01*
X71336Y6432D01*
X71408Y6402D01*
X71630Y6373D01*
X71852Y6402D01*
X72059Y6488D01*
X72236Y6624D01*
X72372Y6801D01*
X72458Y7008D01*
X72487Y7230D01*
X72458Y7452D01*
X72372Y7659D01*
X72236Y7836D01*
X72059Y7972D01*
X71939Y8022D01*
X71878Y8243D01*
X72606Y8972D01*
X72678Y8942D01*
X72900Y8913D01*
X73122Y8942D01*
X73329Y9028D01*
X73506Y9164D01*
X73642Y9341D01*
X73728Y9548D01*
X73757Y9770D01*
X73728Y9992D01*
X73642Y10199D01*
X73506Y10376D01*
X73329Y10512D01*
X73122Y10598D01*
X72900Y10627D01*
X72678Y10598D01*
X72471Y10512D01*
X72294Y10376D01*
X72158Y10199D01*
X72072Y9992D01*
X72043Y9770D01*
X72072Y9548D01*
X72102Y9476D01*
X71212Y8587D01*
X68740D01*
X68613Y8745D01*
X68616Y8787D01*
X68648Y9030D01*
X68616Y9278D01*
X68520Y9509D01*
X68368Y9708D01*
X68169Y9860D01*
X67938Y9956D01*
X67690Y9988D01*
X67442Y9956D01*
X67211Y9860D01*
X67012Y9708D01*
X66860Y9509D01*
X66764Y9278D01*
X66732Y9030D01*
X66764Y8782D01*
X66860Y8551D01*
X67012Y8352D01*
X67211Y8200D01*
X67442Y8104D01*
X67522Y8094D01*
X67585Y7908D01*
X67458Y7757D01*
X51403D01*
X51326Y7942D01*
X52046Y8662D01*
X52118Y8632D01*
X52340Y8603D01*
X52562Y8632D01*
X52769Y8718D01*
X52946Y8854D01*
X53082Y9031D01*
X53168Y9238D01*
X53197Y9460D01*
X53168Y9682D01*
X53082Y9889D01*
X52946Y10066D01*
X52769Y10202D01*
X52562Y10288D01*
X52402Y10309D01*
X52327Y10467D01*
X52324Y10513D01*
X53117Y11307D01*
X53181Y11258D01*
X53388Y11172D01*
X53610Y11143D01*
X53832Y11172D01*
X54039Y11258D01*
X54216Y11394D01*
X54352Y11571D01*
X54438Y11778D01*
X54467Y12000D01*
X54438Y12222D01*
X54352Y12429D01*
X54216Y12606D01*
X54039Y12742D01*
X53832Y12828D01*
X53610Y12857D01*
D02*
G37*
G36*
X48400Y12218D02*
X48152Y12186D01*
X47921Y12090D01*
X47722Y11938D01*
X47570Y11739D01*
X47474Y11508D01*
X47442Y11260D01*
X47474Y11012D01*
X47570Y10781D01*
X47722Y10582D01*
X47921Y10430D01*
X48152Y10334D01*
X48400Y10302D01*
X48648Y10334D01*
X48879Y10430D01*
X49078Y10582D01*
X49230Y10781D01*
X49326Y11012D01*
X49358Y11260D01*
X49326Y11508D01*
X49230Y11739D01*
X49078Y11938D01*
X48879Y12090D01*
X48648Y12186D01*
X48400Y12218D01*
D02*
G37*
G36*
X70360Y10627D02*
X70138Y10598D01*
X69931Y10512D01*
X69754Y10376D01*
X69618Y10199D01*
X69532Y9992D01*
X69503Y9770D01*
X69532Y9548D01*
X69618Y9341D01*
X69754Y9164D01*
X69931Y9028D01*
X70138Y8942D01*
X70360Y8913D01*
X70582Y8942D01*
X70789Y9028D01*
X70966Y9164D01*
X71102Y9341D01*
X71188Y9548D01*
X71217Y9770D01*
X71188Y9992D01*
X71102Y10199D01*
X70966Y10376D01*
X70789Y10512D01*
X70582Y10598D01*
X70360Y10627D01*
D02*
G37*
G36*
X11587Y6206D02*
X10913D01*
X10814Y6186D01*
X10800Y6200D01*
X10000D01*
X9986Y6186D01*
X9887Y6206D01*
X9212D01*
X9091Y6182D01*
X8987Y6113D01*
X8960Y6072D01*
X8795Y5971D01*
X8600Y6010D01*
X8405Y5971D01*
X8240Y5860D01*
X8129Y5695D01*
X8090Y5500D01*
X8129Y5305D01*
X8240Y5140D01*
X8405Y5029D01*
X8600Y4990D01*
X8795Y5029D01*
X8960Y4928D01*
X8987Y4887D01*
X9091Y4818D01*
X9212Y4794D01*
X9711D01*
X9800Y4600D01*
Y3600D01*
X10000Y3400D01*
X10800D01*
X10814Y3414D01*
X10913Y3394D01*
X11587D01*
X11709Y3418D01*
X11813Y3487D01*
X11882Y3591D01*
X11906Y3713D01*
Y4082D01*
X12106Y4246D01*
X12136Y4240D01*
X12331Y4279D01*
X12497Y4390D01*
X12607Y4555D01*
X12646Y4750D01*
X12607Y4945D01*
X12497Y5110D01*
X12331Y5221D01*
X12136Y5260D01*
X12063Y5245D01*
X11906Y5384D01*
Y5887D01*
X11882Y6009D01*
X11813Y6113D01*
X11709Y6182D01*
X11587Y6206D01*
D02*
G37*
G36*
X98000Y6708D02*
X97667Y6675D01*
X97346Y6578D01*
X97051Y6420D01*
X96792Y6208D01*
X96580Y5949D01*
X96422Y5654D01*
X96325Y5333D01*
X96292Y5000D01*
X96325Y4667D01*
X96422Y4346D01*
X96580Y4051D01*
X96792Y3792D01*
X97051Y3580D01*
X97346Y3422D01*
X97667Y3325D01*
X98000Y3292D01*
X98333Y3325D01*
X98654Y3422D01*
X98949Y3580D01*
X99208Y3792D01*
X99420Y4051D01*
X99578Y4346D01*
X99675Y4667D01*
X99708Y5000D01*
X99675Y5333D01*
X99578Y5654D01*
X99420Y5949D01*
X99208Y6208D01*
X98949Y6420D01*
X98654Y6578D01*
X98333Y6675D01*
X98000Y6708D01*
D02*
G37*
G36*
X18500Y4697D02*
X18278Y4668D01*
X18071Y4582D01*
X17894Y4446D01*
X17758Y4269D01*
X17672Y4062D01*
X17643Y3840D01*
X17672Y3618D01*
X17758Y3411D01*
X17894Y3234D01*
X18071Y3098D01*
X18278Y3012D01*
X18500Y2983D01*
X18722Y3012D01*
X18929Y3098D01*
X19106Y3234D01*
X19242Y3411D01*
X19328Y3618D01*
X19357Y3840D01*
X19328Y4062D01*
X19242Y4269D01*
X19106Y4446D01*
X18929Y4582D01*
X18722Y4668D01*
X18500Y4697D01*
D02*
G37*
G36*
X44590Y4627D02*
X44368Y4598D01*
X44161Y4512D01*
X43984Y4376D01*
X43848Y4199D01*
X43762Y3992D01*
X43733Y3770D01*
X43762Y3548D01*
X43848Y3341D01*
X43984Y3164D01*
X44161Y3028D01*
X44368Y2942D01*
X44590Y2913D01*
X44812Y2942D01*
X45019Y3028D01*
X45196Y3164D01*
X45332Y3341D01*
X45418Y3548D01*
X45447Y3770D01*
X45418Y3992D01*
X45332Y4199D01*
X45196Y4376D01*
X45019Y4512D01*
X44812Y4598D01*
X44590Y4627D01*
D02*
G37*
G36*
X18500Y2157D02*
X18278Y2128D01*
X18071Y2042D01*
X17894Y1906D01*
X17758Y1729D01*
X17672Y1522D01*
X17643Y1300D01*
X17672Y1078D01*
X17758Y871D01*
X17894Y694D01*
X18071Y558D01*
X18278Y472D01*
X18500Y443D01*
X18722Y472D01*
X18929Y558D01*
X19106Y694D01*
X19242Y871D01*
X19328Y1078D01*
X19357Y1300D01*
X19328Y1522D01*
X19242Y1729D01*
X19106Y1906D01*
X18929Y2042D01*
X18722Y2128D01*
X18500Y2157D01*
D02*
G37*
%LPD*%
G36*
X37888Y9908D02*
X38003Y9830D01*
X38140Y9803D01*
X39836D01*
X39972Y9830D01*
X40088Y9908D01*
X40323Y10143D01*
X42132D01*
X42522Y9754D01*
X42492Y9682D01*
X42463Y9460D01*
X42492Y9238D01*
X42578Y9031D01*
X42635Y8957D01*
X42536Y8757D01*
X21173D01*
X21074Y8957D01*
X21127Y9026D01*
X21213Y9233D01*
X21242Y9455D01*
X21213Y9677D01*
X21127Y9884D01*
X21086Y9938D01*
X21184Y10138D01*
X34895D01*
X34920Y10143D01*
X37652D01*
X37888Y9908D01*
D02*
G37*
G36*
X70899Y7673D02*
X70888Y7659D01*
X70802Y7452D01*
X70773Y7230D01*
X70802Y7008D01*
X70832Y6936D01*
X70482Y6587D01*
X68824D01*
X68258Y7152D01*
X68197Y7193D01*
X68149Y7378D01*
X68152Y7432D01*
X68593Y7873D01*
X70800D01*
X70899Y7673D01*
D02*
G37*
D36*
X11250Y4100D02*
D03*
X9550D02*
D03*
X9550Y5500D02*
D03*
X11250D02*
D03*
X115050Y13100D02*
D03*
X116750D02*
D03*
X105250Y11380D02*
D03*
X106950D02*
D03*
D40*
X117130Y6600D02*
X117675D01*
X107525Y5600D02*
X108240D01*
X115860Y11375D02*
Y12290D01*
X115050Y13100D02*
X115860Y12290D01*
X117130Y6449D02*
Y6600D01*
Y5975D02*
Y6449D01*
X117675Y6600D02*
X118500Y7425D01*
X106850Y6825D02*
X107050D01*
X106750D02*
X106850D01*
X110225Y1535D02*
Y3445D01*
X109540Y4130D02*
X110225Y3445D01*
X106395Y4130D02*
X109540D01*
X110730Y4630D02*
X111590Y3770D01*
X108570Y4630D02*
X110730D01*
X118194Y5625D02*
X118400D01*
X117339Y4770D02*
X118194Y5625D01*
X116550Y4770D02*
X117339D01*
X118400Y5625D02*
X118500Y5725D01*
X118400Y4667D02*
Y5625D01*
X113320Y5480D02*
X113700Y5100D01*
X115860Y5460D02*
Y5975D01*
Y5460D02*
X116550Y4770D01*
X51720Y2405D02*
X99675D01*
X51200Y2925D02*
X51720Y2405D01*
X51200Y2925D02*
Y3700D01*
X50170Y1905D02*
X99882D01*
X49305Y2770D02*
X50170Y1905D01*
X48130Y2770D02*
X49305D01*
X49826Y1405D02*
X100089D01*
X49001Y2230D02*
X49826Y1405D01*
X47986Y2230D02*
X49001D01*
X48725Y905D02*
X100296D01*
X48400Y1230D02*
X48725Y905D01*
X100296D02*
X103400Y4009D01*
X100089Y1405D02*
X102900Y4216D01*
X99882Y1905D02*
X102400Y4423D01*
X99675Y2405D02*
X101900Y4630D01*
Y10914D01*
X104586Y13600D01*
X11900Y4750D02*
X12000D01*
X12136D01*
X11250Y5500D02*
X12000Y4750D01*
X11250Y4100D02*
X11900Y4750D01*
X12136Y4735D02*
Y4750D01*
X12075Y4675D02*
X12136Y4735D01*
X103652Y10230D02*
X114030D01*
X103400Y9978D02*
X103652Y10230D01*
X103400Y4009D02*
Y9978D01*
X13199Y6900D02*
X68006D01*
X11644Y8455D02*
X13199Y6900D01*
X68006D02*
X68676Y6230D01*
X11351Y9455D02*
X13406Y7400D01*
X67616D01*
X68446Y8230D01*
X12765Y9455D02*
X14320Y7900D01*
X50780D01*
X52340Y9460D01*
X11639Y11995D02*
X14305Y9329D01*
Y9041D02*
Y9329D01*
Y9041D02*
X14946Y8400D01*
X50400D01*
X51340Y9340D01*
Y10034D01*
X15035Y10995D02*
X22069D01*
X22074Y11000D01*
X37564D01*
X38924Y12360D01*
X39836D01*
X41196Y11000D01*
X43590D01*
X15305Y9455D02*
X16345Y10495D01*
X34895D01*
X51340Y10034D02*
X53306Y12000D01*
X110900Y13000D02*
X112050Y11850D01*
X104693Y13000D02*
X110900D01*
X104586Y13600D02*
X111600D01*
X102400Y4423D02*
Y10707D01*
X104693Y13000D01*
X104900Y12500D02*
X106691D01*
X102900Y10500D02*
X104900Y12500D01*
X102900Y4216D02*
Y10500D01*
X114030Y10230D02*
X114590Y10790D01*
X106691Y12500D02*
Y12500D01*
Y12500D02*
X110200D01*
X110780Y11920D01*
X46986Y1230D02*
X47986Y2230D01*
X47130Y3770D02*
X48130Y2770D01*
X70630Y6230D02*
X71630Y7230D01*
X68676Y6230D02*
X70630D01*
X9811Y8455D02*
X11644D01*
X8955Y9311D02*
X9811Y8455D01*
X8955Y9311D02*
Y11995D01*
X71360Y8230D02*
X72900Y9770D01*
X68446Y8230D02*
X71360D01*
X10225Y9455D02*
X11351D01*
X53306Y12000D02*
X53610D01*
X11495Y11995D02*
X11639D01*
X34895Y10495D02*
X34900Y10500D01*
X37800D01*
X38140Y10160D01*
X39836D01*
X40176Y10500D01*
X42280D01*
X43320Y9460D01*
X43590Y11000D02*
X44590Y12000D01*
X14035Y11995D02*
X15035Y10995D01*
X113320Y11375D02*
Y11880D01*
X111600Y13600D02*
X113320Y11880D01*
X112050Y11375D02*
Y11850D01*
X108240Y4960D02*
Y5600D01*
X107050Y5125D02*
X107525Y5600D01*
X106000Y4525D02*
Y6075D01*
X106750Y6825D01*
X107050D02*
X107325Y7100D01*
X108859D01*
X109510Y6449D01*
X106000Y4525D02*
X106395Y4130D01*
X110780Y11375D02*
Y11920D01*
X114590Y10790D02*
Y11375D01*
X45860Y1230D02*
X46986D01*
X113320Y5480D02*
Y5975D01*
X114590Y5310D02*
Y5975D01*
Y5310D02*
X115400Y4500D01*
Y1230D02*
Y4500D01*
X114590Y11375D02*
Y11910D01*
X108240Y4960D02*
X108570Y4630D01*
X111300Y4770D02*
X112065D01*
X110780Y5290D02*
X111300Y4770D01*
X110780Y5290D02*
Y5975D01*
X112050Y5492D02*
X113265Y4277D01*
X112050Y5492D02*
Y5975D01*
X113455Y4075D02*
X114035D01*
X113265Y4265D02*
X113455Y4075D01*
X113265Y4265D02*
Y4277D01*
X112765Y1535D02*
Y4070D01*
X112065Y4770D02*
X112765Y4070D01*
X116479Y7100D02*
X117130Y6449D01*
X110161Y7100D02*
X116479D01*
X109510Y6449D02*
X110161Y7100D01*
X112050Y5975D02*
Y6325D01*
X109510D02*
Y6449D01*
D41*
X114950Y13000D02*
X115050Y13100D01*
X114000Y13000D02*
X114950D01*
X8600Y5500D02*
X9541D01*
X107100Y11375D02*
X108240D01*
D44*
X21655Y11995D02*
D03*
X20385Y9455D02*
D03*
X19115Y11995D02*
D03*
X17845Y9455D02*
D03*
X16575Y11995D02*
D03*
X15305Y9455D02*
D03*
X14035Y11995D02*
D03*
X12765Y9455D02*
D03*
X2605D02*
D03*
X3875Y11995D02*
D03*
X5145Y9455D02*
D03*
X6415Y11995D02*
D03*
X7685Y9455D02*
D03*
X8955Y11995D02*
D03*
X10225Y9455D02*
D03*
X11495Y11995D02*
D03*
X110320Y1230D02*
D03*
X111590Y3770D02*
D03*
X112860Y1230D02*
D03*
X114130Y3770D02*
D03*
X115400Y1230D02*
D03*
X116670Y3770D02*
D03*
X43320Y1230D02*
D03*
X44590Y3770D02*
D03*
X45860Y1230D02*
D03*
X47130Y3770D02*
D03*
X48400Y1230D02*
D03*
X49670Y3770D02*
D03*
X18500Y3840D02*
D03*
Y1300D02*
D03*
X72900Y9770D02*
D03*
X71630Y7230D02*
D03*
X70360Y9770D02*
D03*
X69090Y7230D02*
D03*
X44590Y12000D02*
D03*
X43320Y9460D02*
D03*
X42050Y12000D02*
D03*
X40780Y9460D02*
D03*
X53610Y12000D02*
D03*
X52340Y9460D02*
D03*
X51070Y12000D02*
D03*
X49800Y9460D02*
D03*
D45*
X2500Y17500D02*
D03*
Y23500D02*
D03*
X132500Y17500D02*
D03*
Y23500D02*
D03*
X82000Y8000D02*
D03*
X87000D02*
D03*
X92000D02*
D03*
X127000Y2500D02*
D03*
X122000D02*
D03*
X38000D02*
D03*
X33000D02*
D03*
D46*
X127000Y10500D02*
D03*
D47*
X122000D02*
D03*
X123250Y23365D02*
D03*
D48*
X125750Y19035D02*
D03*
D49*
X92500Y12000D02*
D03*
X93500Y14000D02*
D03*
X92500D02*
D03*
X90500D02*
D03*
Y12000D02*
D03*
X93500Y13000D02*
D03*
X92500D02*
D03*
X93500Y12000D02*
D03*
X91500D02*
D03*
X90500Y13000D02*
D03*
X91500Y14000D02*
D03*
Y13000D02*
D03*
X87500Y12000D02*
D03*
X88500Y14000D02*
D03*
X87500D02*
D03*
X85500D02*
D03*
Y12000D02*
D03*
X88500Y13000D02*
D03*
X87500D02*
D03*
X88500Y12000D02*
D03*
X86500D02*
D03*
X85500Y13000D02*
D03*
X86500Y14000D02*
D03*
Y13000D02*
D03*
X82500Y12000D02*
D03*
X83500Y14000D02*
D03*
X82500D02*
D03*
X80500D02*
D03*
Y12000D02*
D03*
X83500Y13000D02*
D03*
X82500D02*
D03*
X83500Y12000D02*
D03*
X81500D02*
D03*
X80500Y13000D02*
D03*
X81500Y14000D02*
D03*
Y13000D02*
D03*
X128500Y24000D02*
D03*
X129500D02*
D03*
X128500Y25000D02*
D03*
X127500Y24000D02*
D03*
Y22000D02*
D03*
X128500Y23000D02*
D03*
Y22000D02*
D03*
X127500Y25000D02*
D03*
X129500D02*
D03*
Y23000D02*
D03*
Y22000D02*
D03*
X127500Y23000D02*
D03*
Y17000D02*
D03*
X114000Y13000D02*
D03*
X113700Y5100D02*
D03*
X106900Y11400D02*
D03*
X129500Y16000D02*
D03*
Y17000D02*
D03*
Y19000D02*
D03*
X127500D02*
D03*
X128500Y16000D02*
D03*
Y17000D02*
D03*
X127500Y16000D02*
D03*
Y18000D02*
D03*
X128500Y19000D02*
D03*
X129500Y18000D02*
D03*
X128500D02*
D03*
X51200Y3700D02*
D03*
D50*
X8500Y25000D02*
D03*
Y24000D02*
D03*
Y23000D02*
D03*
X12100Y20000D02*
D03*
X7500Y20400D02*
D03*
X6500D02*
D03*
X5500D02*
D03*
X7500Y25000D02*
D03*
Y24000D02*
D03*
Y23000D02*
D03*
X8500Y22000D02*
D03*
X7500D02*
D03*
X6500D02*
D03*
X5500D02*
D03*
X6500Y2700D02*
D03*
X5500D02*
D03*
X4200D02*
D03*
X14100D02*
D03*
X16400D02*
D03*
X13100D02*
D03*
X116800Y14200D02*
D03*
X15400Y2700D02*
D03*
X2000Y1195D02*
D03*
X3200Y2700D02*
D03*
X8000D02*
D03*
X9177D02*
D03*
X10352D02*
D03*
X6500Y25000D02*
D03*
Y24000D02*
D03*
Y23000D02*
D03*
X5500D02*
D03*
Y24000D02*
D03*
Y25000D02*
D03*
X13600Y22800D02*
D03*
X12100Y22000D02*
D03*
Y21000D02*
D03*
Y19000D02*
D03*
Y18000D02*
D03*
D51*
X3000Y14000D02*
D03*
X3500Y14500D02*
D03*
X5000Y15000D02*
D03*
X4000Y14000D02*
D03*
X4500Y14500D02*
D03*
X37400Y11938D02*
D03*
X38100Y12800D02*
D03*
X67100Y14100D02*
D03*
X67900Y13300D02*
D03*
X109100Y11800D02*
D03*
X118400Y4667D02*
D03*
X12136Y4750D02*
D03*
X104300Y10880D02*
D03*
X8600Y5500D02*
D03*
D52*
X6500Y17500D02*
D03*
Y23500D02*
D03*
X128500Y17500D02*
D03*
Y23500D02*
D03*
D53*
X108240Y11375D02*
D03*
D54*
X109510D02*
D03*
X110780D02*
D03*
X112050D02*
D03*
X113320D02*
D03*
X114590D02*
D03*
X115860D02*
D03*
X117130D02*
D03*
X108240Y5975D02*
D03*
X109510D02*
D03*
X110780D02*
D03*
X112050D02*
D03*
X113320D02*
D03*
X114590D02*
D03*
X115860D02*
D03*
X117130D02*
D03*
D55*
X92000Y13000D02*
D03*
X87000D02*
D03*
X82000D02*
D03*
D56*
X118500Y5725D02*
D03*
Y7425D02*
D03*
X106850Y6825D02*
D03*
Y5125D02*
D03*
M02*
